<?xml version="1.0" standalone="no"?>
<!DOCTYPE svg PUBLIC "-//W3C//DTD SVG 20010904//EN"
 "http://www.w3.org/TR/2001/REC-SVG-20010904/DTD/svg10.dtd">
<svg version="1.0" xmlns="http://www.w3.org/2000/svg"
 width="200.000000pt" height="200.000000pt" viewBox="0 0 200.000000 200.000000"
 preserveAspectRatio="xMidYMid meet">

<g transform="translate(0.000000,200.000000) scale(0.100000,-0.100000)"
fill="#000000" stroke="none">
<path d="M406 1978 c-30 -43 -14 -117 30 -137 66 -30 153 63 129 138 -6 19
-14 21 -75 21 -60 0 -71 -3 -84 -22z"/>
<path d="M782 1977 c-57 -60 -48 -143 22 -213 29 -30 53 -43 82 -48 97 -17
150 48 120 147 -26 87 -83 137 -157 137 -35 0 -51 -5 -67 -23z"/>
<path d="M543 1830 c-45 -27 -63 -60 -70 -122 -6 -68 23 -116 82 -137 36 -12
45 -11 97 8 69 27 98 66 98 132 0 110 -115 176 -207 119z"/>
<path d="M900 1644 c-156 -53 -294 -137 -428 -260 l-53 -49 42 -60 c23 -33 43
-61 44 -63 2 -1 28 22 60 53 81 80 144 128 228 174 86 47 211 91 262 91 20 0
35 3 33 8 -11 24 -95 131 -103 131 -5 0 -44 -11 -85 -25z"/>
<path d="M321 1643 c-85 -42 -130 -227 -75 -310 59 -91 224 90 224 244 0 71
-73 103 -149 66z"/>
<path d="M940 866 c-30 -7 -62 -15 -70 -19 -8 -3 -34 -11 -57 -17 -28 -7 -40
-15 -37 -24 3 -9 -6 -15 -26 -20 -35 -7 -64 -31 -55 -46 3 -5 0 -10 -7 -10
-11 0 -10 -2 0 -9 10 -6 8 -10 -10 -15 -22 -6 -23 -7 -4 -21 11 -8 14 -15 7
-15 -7 0 -9 -5 -5 -11 3 -6 0 -15 -7 -20 -10 -6 -3 -9 21 -10 32 -1 33 -2 10
-9 -22 -6 -23 -8 -7 -15 9 -4 17 -15 17 -25 0 -10 7 -21 16 -24 8 -3 13 -10
10 -15 -7 -10 46 -31 78 -31 16 0 18 -2 7 -9 -11 -7 -4 -11 25 -15 21 -4 53
-11 69 -17 17 -6 89 -13 160 -16 150 -6 251 10 337 53 206 102 177 260 -62
344 -54 19 -90 23 -210 26 -91 2 -166 -2 -200 -10z"/>
<path d="M1630 491 c-19 -3 -35 -12 -36 -18 -2 -29 -5 -33 -25 -33 -16 0 -19
-4 -14 -20 5 -17 2 -20 -20 -20 -20 0 -26 -4 -21 -15 4 -11 -2 -15 -21 -15
-21 0 -24 -3 -15 -12 9 -9 1 -17 -36 -34 l-47 -22 37 -7 c21 -4 43 -14 49 -22
7 -8 30 -23 50 -34 125 -63 268 58 219 186 -11 30 -58 76 -74 74 -6 -1 -27 -5
-46 -8z"/>
<path d="M544 449 c-23 -12 -51 -54 -54 -84 -5 -48 2 -69 34 -101 27 -27 42
-34 74 -34 57 0 89 15 111 52 l20 32 -76 73 c-42 40 -79 73 -82 72 -3 0 -15
-5 -27 -10z"/>
<path d="M950 265 c-25 -7 -36 -14 -25 -14 15 -1 17 -3 7 -10 -11 -7 -11 -9 2
-14 14 -5 14 -9 1 -34 -19 -37 -19 -77 2 -120 22 -48 66 -73 127 -73 115 0
179 101 129 205 -32 67 -133 92 -243 60z"/>
</g>
</svg>
